<svg xmlns="http://www.w3.org/2000/svg" width="92.875" height="42.5" xml:space="preserve"><path d="M.842 20.601V2.15h3.696l3.272 9.028c.207.583.409 1.18.606 1.792.198.611.39 1.218.579 1.82h.113c.207-.602.404-1.208.592-1.82s.376-1.208.564-1.792l3.188-9.028h3.724v18.451h-3.019v-8.436c0-.583.023-1.217.071-1.904.047-.687.103-1.377.169-2.074.066-.695.127-1.326.184-1.89h-.113l-1.495 4.288-3.018 8.295H8.008l-3.047-8.294-1.467-4.289h-.113c.056.564.117 1.195.183 1.89.066.696.122 1.387.169 2.074.047.687.07 1.322.07 1.904v8.436H.842zM24.936 20.939c-1.204 0-2.187-.376-2.948-1.128-.762-.752-1.143-1.73-1.143-2.934 0-1.485.649-2.638 1.946-3.456 1.298-.818 3.367-1.377 6.207-1.679-.019-.733-.212-1.368-.579-1.904s-1.021-.804-1.96-.804c-.677 0-1.34.132-1.989.395s-1.284.583-1.904.959L21.38 8.216a13.763 13.763 0 0 1 2.61-1.27 8.857 8.857 0 0 1 3.089-.536c1.73 0 3.023.513 3.879 1.538.856 1.025 1.284 2.506 1.284 4.443v8.21h-2.68l-.226-1.523h-.113c-.621.527-1.284.969-1.989 1.326a5.013 5.013 0 0 1-2.298.535zm1.043-2.539c.564 0 1.077-.136 1.538-.409a9.584 9.584 0 0 0 1.481-1.114v-3.104c-1.881.245-3.188.607-3.922 1.086-.733.479-1.1 1.068-1.1 1.763 0 .621.188 1.072.564 1.354.377.283.856.424 1.439.424zM34.471 20.601l4.401-7.222-4.119-6.63h3.498l1.552 2.624c.207.376.418.767.635 1.171.216.405.428.795.635 1.171h.113c.169-.376.348-.766.536-1.171.188-.404.367-.794.536-1.171l1.326-2.624h3.358l-4.092 6.997 4.4 6.855h-3.498l-1.693-2.737a91.168 91.168 0 0 0-.691-1.241 38.026 38.026 0 0 0-.719-1.213h-.113c-.188.395-.386.794-.592 1.199-.207.405-.414.823-.621 1.255l-1.467 2.737h-3.385zM51.342 4.322c-.584 0-1.054-.169-1.411-.508-.357-.338-.536-.79-.536-1.354 0-.545.179-.987.536-1.326.357-.338.827-.508 1.411-.508.582 0 1.053.169 1.41.508.357.339.536.781.536 1.326 0 .564-.179 1.016-.536 1.354-.357.339-.828.508-1.41.508zm-1.637 16.279V6.749h3.244v13.853h-3.244zM57.097 20.601V6.749h2.68l.227 1.891h.112a9.734 9.734 0 0 1 1.904-1.58c.687-.433 1.462-.649 2.328-.649 1.016 0 1.828.221 2.439.663s1.077 1.049 1.397 1.82a10.856 10.856 0 0 1 2.073-1.777 4.291 4.291 0 0 1 2.384-.706c1.467 0 2.549.479 3.244 1.439.696.959 1.044 2.313 1.044 4.063v8.689h-3.272v-8.266c0-1.147-.174-1.956-.521-2.426-.349-.47-.88-.706-1.595-.706-.865 0-1.833.574-2.905 1.721v9.677h-3.245v-8.266c0-1.147-.174-1.956-.521-2.426-.349-.47-.889-.706-1.622-.706-.865 0-1.834.574-2.906 1.721v9.677h-3.245zM86.804 20.939c-1.279 0-2.437-.287-3.471-.86-1.034-.573-1.853-1.401-2.454-2.482-.603-1.082-.903-2.384-.903-3.908 0-1.504.306-2.802.917-3.893s1.406-1.928 2.385-2.511c.978-.583 2.003-.875 3.075-.875 1.26 0 2.313.278 3.159.833s1.485 1.326 1.919 2.313c.432.987.648 2.13.648 3.428 0 .677-.047 1.204-.141 1.58h-8.803c.15 1.223.593 2.172 1.326 2.85s1.654 1.016 2.765 1.016c.602 0 1.161-.089 1.679-.268a7.471 7.471 0 0 0 1.537-.748l1.101 2.031a9.944 9.944 0 0 1-2.2 1.072 7.686 7.686 0 0 1-2.539.422zm-3.697-8.576h6.15c0-1.072-.235-1.914-.705-2.525-.471-.611-1.176-.917-2.116-.917-.809 0-1.528.296-2.158.889-.63.592-1.02 1.443-1.171 2.553z"/><g><path fill-rule="evenodd" clip-rule="evenodd" fill="#010202" d="M68.824 35.064c.968-.113 1.9-.252 2.835-.326a22.126 22.126 0 0 1 5.046.164c.872.129 1.737.318 2.593.527.757.184 1.499.227 2.25.012 1.142-.326 2.308-.512 3.487-.633 2.112-.219 4.217-.178 6.312.176.238.039.475.076.732.119-.1.455-.188.889-.292 1.318-.013.053-.089.121-.144.129-.368.049-.539.27-.628.621-.229.885-.475 1.768-.727 2.646-.297 1.033-1.033 1.633-2.022 1.867-1.378.332-2.756.299-4.108-.213-.748-.28-1.281-.799-1.648-1.471-.474-.869-.885-1.771-1.305-2.668-.155-.326-.401-.461-.733-.469-.37-.01-.61.154-.758.471-.393.834-.783 1.67-1.197 2.496-.129.26-.323.488-.499.723-.594.789-1.463 1.066-2.367 1.229-1.122.199-2.248.178-3.337-.205-.824-.293-1.416-.85-1.672-1.713a69.499 69.499 0 0 1-.711-2.574c-.1-.393-.231-.699-.686-.744-.051-.006-.115-.107-.131-.176-.099-.409-.183-.821-.29-1.306zm5.494 6.241c.466-.049.915-.076 1.358-.15.948-.16 1.692-.631 2.166-1.502.454-.838.67-1.736.742-2.676.031-.41-.127-.756-.479-.967a3.634 3.634 0 0 0-.884-.402c-1.68-.463-3.383-.447-5.085-.154-.879.15-1.275.682-1.306 1.586-.031.881.162 1.721.427 2.547.29.906.902 1.436 1.833 1.576.411.062.826.097 1.228.142zm12.288.004c.413-.051.866-.074 1.305-.166.646-.135 1.219-.402 1.523-1.061.477-1.027.711-2.102.636-3.232-.035-.533-.249-.986-.76-1.219a2.617 2.617 0 0 0-.716-.215c-1.211-.174-2.425-.238-3.643-.064-.677.098-1.35.209-1.968.539-.496.264-.7.666-.646 1.225a7.34 7.34 0 0 0 .493 2.053c.452 1.113 1.244 1.814 2.444 1.992.431.062.863.095 1.332.148z"/></g><g><path d="M.831 41.642v-14.46H1.84v13.582h6.671v.878H.831zM14.567 41.905a4.444 4.444 0 0 1-2.326-.647c-.717-.432-1.294-1.061-1.733-1.888-.439-.826-.658-1.817-.658-2.973 0-1.186.219-2.19.658-3.018.439-.826 1.017-1.455 1.733-1.887s1.492-.647 2.326-.647c.848 0 1.631.216 2.348.647s1.295 1.061 1.733 1.887c.439.827.659 1.832.659 3.018 0 1.155-.22 2.146-.659 2.973-.438.827-1.017 1.456-1.733 1.888a4.482 4.482 0 0 1-2.348.647zm0-.856c.716 0 1.353-.197 1.909-.592.556-.396.999-.94 1.328-1.635.329-.695.494-1.504.494-2.425 0-.937-.165-1.756-.494-2.458s-.771-1.251-1.328-1.646a3.206 3.206 0 0 0-1.909-.593 3.22 3.22 0 0 0-1.898.593c-.563.395-1.006.943-1.328 1.646-.322.702-.483 1.521-.483 2.458 0 .921.161 1.729.483 2.425.321.694.764 1.239 1.328 1.635a3.227 3.227 0 0 0 1.898.592zM25.495 41.905c-1.083 0-1.884-.333-2.403-.999-.52-.665-.779-1.679-.779-3.039v-6.758h.965v6.626c0 1.112.187 1.938.56 2.479.373.542.984.813 1.833.813.628 0 1.199-.172 1.711-.516.512-.344 1.075-.889 1.689-1.635v-7.768h.965V41.64h-.812l-.11-1.756h-.044a7.635 7.635 0 0 1-1.624 1.46c-.569.375-1.22.561-1.951.561zM34.228 41.642v-9.699H32.78v-.746l1.448-.087v-2.349c0-1.038.227-1.824.68-2.358.453-.534 1.097-.801 1.931-.801.512 0 1.023.118 1.536.351l-.264.79a2.43 2.43 0 0 0-.647-.241 3.075 3.075 0 0 0-.625-.066c-.556 0-.969.206-1.24.615-.271.409-.406 1.002-.406 1.777v2.282h2.436v.833h-2.436v9.699h-.965z"/></g></svg>